<svg t="1697013846707" class="icon" viewBox="0 0 1024 1024" version="1.1" xmlns="http://www.w3.org/2000/svg" p-id="2463"
	width="22" height="22">
	<path
		d="M459.608 123.504c21.6-37.088 75.184-37.088 96.784 0l105.36 180.88 204.584 44.304c41.944 9.088 58.504 60.04 29.904 92.048L756.768 596.832l21.088 208.264c4.32 42.704-39.024 74.192-78.296 56.888L508 777.568l-191.56 84.416c-39.272 17.304-82.616-14.184-78.296-56.888l21.088-208.264L119.76 440.736c-28.6-32-12.04-82.96 29.904-92.048l204.592-44.304 105.36-180.88z m48.392 44.08L407.784 339.64a56 56 0 0 1-36.536 26.552L176.632 408.32l132.672 148.48a56 56 0 0 1 13.96 42.96L303.2 797.88l182.216-80.296a56 56 0 0 1 45.168 0L712.8 797.88 692.736 599.76a56 56 0 0 1 13.96-42.96l132.672-148.48-194.616-42.136a56 56 0 0 1-36.536-26.552L508 167.584z"
		fill="#e12300" p-id="2464"></path>
</svg>