<svg t="1697014778028" class="icon" viewBox="0 0 1024 1024" version="1.1" xmlns="http://www.w3.org/2000/svg" p-id="3476"
	width="22" height="22">
	<path
		d="M694.2 180.1l-0.2 2.9c-6.6 129.3-61 255-157.1 351-95.5 95.7-220.4 150-348.9 157.1l-5 0.3 0.1 0.1c15.9 30.1 36.3 58 60.8 82.8l1.5 1.5c141.7 141.7 376.2 138.2 523.8-9.4s151.1-382.1 9.4-523.8c-24.8-24.8-52.7-45.4-82.9-61.6l-1.5-0.9zM610.5 70.9c81.7 16 159.2 55.2 221.9 117.9 171.7 171.7 167.5 454.4-9.4 631.3s-459.5 181.1-631.3 9.4C129 766.8 89.8 689.3 73.8 607.6c142.1 27.8 297.1-14.9 409.4-127.3 111.5-111.4 154.4-264.8 127.9-406l-0.6-3.4z"
		fill="#e12300" p-id="3477"></path>
</svg>