<svg t="1698918701314" class="icon" viewBox="0 0 1024 1024" version="1.1" xmlns="http://www.w3.org/2000/svg" p-id="30457" width="22" height="22"><path d="M511.33 128c-219.3 0-397.07 177.77-397.07 397.07s177.77 397.07 397.07 397.07S908.4 744.36 908.4 525.07 730.63 128 511.33 128z m0 743.45c-190.99 0-346.38-155.39-346.38-346.38s155.39-346.38 346.38-346.38 346.38 155.39 346.38 346.38-155.38 346.38-346.38 346.38z" p-id="30458" fill="#707070"></path><path d="M679.94 516.5H536.68V321.76c0-14-11.35-25.34-25.34-25.34-14 0-25.34 11.35-25.34 25.34v220.09c0 14 11.35 25.34 25.34 25.34h168.61c14 0 25.34-11.35 25.34-25.34 0-14-11.35-25.35-25.35-25.35zM775.03 107.69l124.21 102.99c10.77 8.93 12.26 24.91 3.33 35.68s-24.91 12.26-35.68 3.33L742.68 146.7c-10.77-8.93-12.26-24.91-3.33-35.68s24.9-12.26 35.68-3.33zM247.63 107.69l-124.2 102.99c-10.77 8.93-12.26 24.91-3.33 35.68s24.91 12.26 35.68 3.33l124.2-102.99c10.77-8.93 12.26-24.91 3.33-35.68s-24.9-12.26-35.68-3.33z" p-id="30459" fill="#707070"></path></svg>