<svg t="1697616808968" class="icon" viewBox="0 0 1024 1024" version="1.1" xmlns="http://www.w3.org/2000/svg" p-id="3782"
	width="32" height="32">
	<path
		d="M790.8352 921.2416H225.0752c-73.4208 0-133.12-59.6992-133.12-133.12V235.8784c0-73.4208 59.6992-133.12 133.12-133.12h565.76c73.4208 0 133.12 59.6992 133.12 133.12v552.192c0 73.4208-59.6992 133.1712-133.12 133.1712zM225.0752 164.1984c-39.5264 0-71.68 32.1536-71.68 71.68v552.192c0 39.5264 32.1536 71.68 71.68 71.68h565.76c39.5264 0 71.68-32.1536 71.68-71.68V235.8784c0-39.5264-32.1536-71.68-71.68-71.68H225.0752z"
		fill="#d81e06" p-id="3783"></path>
	<path
		d="M320.8192 725.6576c-16.9472 0-30.72-13.7728-30.72-30.72V495.5648c0-16.9472 13.7728-30.72 30.72-30.72s30.72 13.7728 30.72 30.72v199.424a30.6688 30.6688 0 0 1-30.72 30.6688zM696.4736 725.6576c-16.9472 0-30.72-13.7728-30.72-30.72V495.5648c0-16.9472 13.7728-30.72 30.72-30.72s30.72 13.7728 30.72 30.72v199.424c0 16.9472-13.7728 30.6688-30.72 30.6688zM502.8352 725.6576c-16.9472 0-30.72-13.7728-30.72-30.72V315.4944c0-16.9472 13.7728-30.72 30.72-30.72s30.72 13.7728 30.72 30.72v379.4944c0 16.9472-13.7728 30.6688-30.72 30.6688z"
		fill="#d81e06" p-id="3784"></path>
</svg>