<svg t="1700026674822" class="icon" viewBox="0 0 1024 1024" version="1.1" xmlns="http://www.w3.org/2000/svg" p-id="8995"
	width="200" height="200">
	<path
		d="M801.96 112C884.273 112 951 178.727 951 261.04v463.214c0 81.515-66.081 147.597-147.597 147.597h-125.8a74.52 74.52 0 0 0-40.157 11.745L522.5 957.127a37.26 37.26 0 0 1-40.538-0.246L371.168 884.09a74.52 74.52 0 0 0-40.918-12.24H203.04C120.727 871.85 54 805.124 54 722.81V261.04C54 178.727 120.727 112 203.04 112h598.92z m1.255 60.42h-601.22c-47.536 0-86.161 38.15-86.929 85.502l-0.011 1.438v465.591c0 47.536 38.15 86.16 85.502 86.928l1.438 0.012h149.227a74.52 74.52 0 0 1 39.52 11.343l0.645 0.407 91.099 58.292a37.26 37.26 0 0 0 39.353 0.504l0.431-0.265 94.717-59.01a74.52 74.52 0 0 1 38.645-11.267l0.76-0.004h146.823c47.535 0 86.16-38.15 86.928-85.502l0.012-1.438V259.36c0-48.016-38.925-86.94-86.94-86.94z m-91.51 391.875c16.513 0 29.9 13.387 29.9 29.9 0 16.277-13.007 29.517-29.194 29.892l-0.706 0.008H295.5c-16.513 0-29.9-13.387-29.9-29.9 0-16.277 13.007-29.517 29.194-29.892l0.706-0.008h416.205z m0-200.448c16.513 0 29.9 13.387 29.9 29.9 0 16.277-13.007 29.517-29.194 29.892l-0.706 0.008H295.5c-16.513 0-29.9-13.387-29.9-29.9 0-16.277 13.007-29.516 29.194-29.891l0.706-0.009h416.205z"
		fill="red" p-id="8996"></path>
</svg>