<svg t="1697617252798" class="icon" viewBox="0 0 1024 1024" version="1.1" xmlns="http://www.w3.org/2000/svg" p-id="4089"
	width="32" height="32">
	<path
		d="M801.4 884.2H224.3c-45.5 0-82.6-37.2-82.6-82.6V317.2c0-45.5 37.2-82.6 82.6-82.6h577.1c45.5 0 82.6 37.2 82.6 82.6v484.3c0 45.5-37.2 82.7-82.6 82.7z"
		fill="#d81e06" opacity=".7" p-id="4090"></path>
	<path d="M393.2 330.8H287.3V173.9c0-15.6 12.6-28.3 28.3-28.3h49.3c15.6 0 28.3 12.6 28.3 28.3v156.9z" fill="#d81e06"
		opacity=".7" p-id="4091"></path>
	<path d="M141.7 330.7h741.9v71.8H141.7z" fill="#d81e06" opacity=".7" p-id="4092"></path>
	<path d="M739.5 330.8H633.6V173.9c0-15.6 12.6-28.3 28.3-28.3h49.3c15.6 0 28.3 12.6 28.3 28.3v156.9z" fill="#d81e06"
		opacity=".7" p-id="4093"></path>
	<path
		d="M568.2 580.1H347c-19.1 0-34.7-15.8-34.7-35 0-19.3 15.6-35 34.7-35h221.1c19.1 0 34.7 15.8 34.7 35 0 19.3-15.6 35-34.6 35zM683.8 747.5H343.9c-17.3 0-31.5-15.8-31.5-35 0-19.3 14.2-35 31.5-35h339.9c17.3 0 31.5 15.8 31.5 35 0.1 19.2-14.1 35-31.5 35z"
		fill="#d81e06" p-id="4094"></path>
</svg>