<svg t="1697615403447" class="icon" viewBox="0 0 1024 1024" version="1.1" xmlns="http://www.w3.org/2000/svg" p-id="8390" width="22" height="22"><path d="M313.83552 400.66048a35.84 35.84 0 0 1 63.87712-6.48192l1.1776 2.02752 96.3072 177.79712 55.49056-138.0352a35.84 35.84 0 0 1 44.76928-20.57216l1.8432 0.68608a35.84 35.84 0 0 1 13.2096 9.216l1.51552 1.77152 40.46848 51.06688a20.48 20.48 0 0 0 16.05632 7.76192h77.35296a25.6 25.6 0 0 1 25.5488 23.92064l0.0512 1.67936a25.6 25.6 0 0 1-23.92064 25.5488l-1.67936 0.0512h-102.0928a20.48 20.48 0 0 1-16.05632-7.75168L568.32 479.5904l-57.81504 143.85152a35.84 35.84 0 0 1-14.22336 16.9984l-1.95584 1.14688a35.84 35.84 0 0 1-47.5648-12.68736l-1.024-1.76128-95.8464-176.9472-27.67872 73.63584a20.48 20.48 0 0 1-19.16928 13.27104H157.184a25.6 25.6 0 0 1-1.6896-51.13856l1.6896-0.06144h110.41792a20.48 20.48 0 0 0 19.16928-13.27104l27.07456-71.96672z" fill="#CF0D4E" p-id="8391"></path><path d="M174.8992 240.82432c91.16672-91.15648 235.78624-96.28672 332.96384-15.36 97.16736-80.9472 241.8176-75.83744 332.99456 15.33952 96.59392 96.59392 96.59392 253.20448 0 349.7984L683.79648 747.66336a250.13248 250.13248 0 0 1-19.82464 17.8176l-55.74656 55.73632c-55.98208 55.98208-146.75968 55.98208-202.74176 0L174.8992 590.63296c-96.59392-96.59392-96.59392-253.20448 0-349.7984z m36.20864 36.20864c-75.776 75.776-76.5952 198.12352-2.4576 274.90304l2.4576 2.48832 230.58432 230.58432a92.16 92.16 0 0 0 128.38912 1.88416l1.9456-1.88416 57.67168-57.6512 2.11968-1.72032c4.10624-3.31776 8.0896-6.79936 11.96032-10.46528l3.81952-3.71712 157.05088-157.05088c76.5952-76.5952 76.5952-200.79616 0-277.4016-71.02464-71.0144-183.9104-76.63616-261.3248-14.40768l-2.69312 2.2016-32.768 27.2896-32.768-27.2896c-77.48608-64.52224-192.1536-59.5968-263.9872 12.2368z" fill="#100D0E" p-id="8392"></path></svg>