<svg t="1698227340754" class="icon" viewBox="0 0 1630 1024" version="1.1" xmlns="http://www.w3.org/2000/svg" p-id="4828"
	width="22" height="22">
	<path
		d="M629.136823 1022.573808c-13.04415 0-26.104676-4.83238-36.055269-14.480763L115.999442 545.455967c-19.929472-19.311654-19.929472-50.620889 0-69.934032 19.911607-19.319097 52.19893-19.319097 72.115003 0l477.071691 462.625169c19.922028 19.323564 19.922028 50.634287 0 69.939986-9.968458 9.670714-23.012608 14.486718-36.049313 14.486718z m0 0"
		p-id="4829" fill="#ffffff"></path>
	<path
		d="M153.153385 559.902489c-13.04415 0-26.104676-4.827913-36.049314-14.474808-19.923517-19.319097-19.923517-50.628332 0-69.945941L591.97097 14.989905c19.923517-19.323564 52.209351-19.323564 72.126913 0 19.923517 19.313143 19.923517 50.622377 0 69.929565L189.220563 545.427681c-9.962503 9.664759-23.017074 14.474808-36.067178 14.474808z m0 0"
		p-id="4830" fill="#ffffff"></path>
	<path
		d="M1287.306629 560.466713H140.667504c-21.580461 0-39.089277-22.156595-39.089277-49.465643 0-27.303094 17.508816-49.465643 39.089277-49.465643h1146.639125c21.580461 0 39.090765 22.162549 39.090766 49.465643 0 27.309049-17.49244 49.465643-39.090766 49.465643z m0 0"
		p-id="4831" fill="#ffffff"></path>
</svg>