<svg t="1697617711589" class="icon" viewBox="0 0 1024 1024" version="1.1" xmlns="http://www.w3.org/2000/svg" p-id="4671" width="10" height="10"><path d="M669.762 375.23v378.528a12.131 12.131 0 0 1-2.292 7.1c-2.907 53.053-51.208 104.765-120.362 122.99-81.453 21.802-160.893-10.678-177.496-72.676s36.002-129.698 117.399-151.557c50.314-13.417 99.398-6.26 133.835 15.598v-312.17s-2.292-59.93 97.72-24.43a633.955 633.955 0 0 0 183.2 36.617v48.86s-119.021-3.801-232.004-48.86zM617.38 745.205c-9.616-35.835-68.819-51.097-117.4-38.015s-92.8 55.904-83.017 91.74 68.818 51.096 117.399 38.014 92.577-55.904 83.018-91.739zM547.61 448.521H156.784a12.187 12.187 0 0 1-12.243-12.467v-24.15a12.187 12.187 0 0 1 12.187-12.188H547.61a12.187 12.187 0 0 1 12.187 12.187v24.15a12.187 12.187 0 0 1-12.187 12.468z m0-122.095H156.784a12.187 12.187 0 0 1-12.187-12.188v-24.43a12.187 12.187 0 0 1 12.187-12.187H547.61a12.187 12.187 0 0 1 12.187 12.187v24.374a12.187 12.187 0 0 1-12.187 12.244z m0-122.096H156.784a12.187 12.187 0 0 1-12.187-12.187v-24.43a12.187 12.187 0 0 1 12.187-12.187H547.61a12.187 12.187 0 0 1 12.187 12.187v24.43a12.187 12.187 0 0 1-12.187 12.187zM156.784 521.755h305.35a12.187 12.187 0 0 1 12.186 12.187v24.43a12.187 12.187 0 0 1-12.187 12.188h-305.35a12.187 12.187 0 0 1-12.186-12.187v-24.375a12.187 12.187 0 0 1 12.187-12.243z m0 109.908h170.732a12.187 12.187 0 0 1 12.187 12.187v24.43a12.187 12.187 0 0 1-12.187 12.188H156.784a12.187 12.187 0 0 1-12.187-12.187v-24.43a12.187 12.187 0 0 1 12.187-12.132z m863.946 333.861A58.476 58.476 0 0 1 962.254 1024H61.746A58.476 58.476 0 0 1 3.27 965.524V58.476A58.476 58.476 0 0 1 61.746 0h900.508a58.476 58.476 0 0 1 58.476 58.476zM976.006 85.981a44.164 44.164 0 0 0-44.164-44.165H92.158a44.164 44.164 0 0 0-44.164 44.165v851.982a44.164 44.164 0 0 0 44.164 44.165h839.628a44.164 44.164 0 0 0 44.164-44.165V85.981z" fill="#d81e06" p-id="4672"></path></svg>